<svg xmlns="http://www.w3.org/2000/svg" xmlns:xlink="http://www.w3.org/1999/xlink" width="800" height="600" viewBox="0 0 800 600"><path fill="#03A9F4" d="M614.4 247.2c-3.468 0-6.533 1.2-9.2 3.466-2.533 2.267-3.867 5.467-3.867 9.6s1.334 7.2 3.867 9.6c2.533 2.267 5.6 3.467 9.2 3.467 3.6 0 6.532-1.2 9.198-3.467 2.533-2.267 3.867-5.467 3.867-9.6s-1.334-7.2-3.867-9.6c-2.664-2.266-5.731-3.466-9.198-3.466zM677.467 283.467c-22 0-39.867 17.867-39.867 39.866v5.867c0 22 17.867 39.866 39.867 39.866s39.866-17.866 39.866-39.866v-5.867c0-21.999-17.866-39.866-39.866-39.866zm19.599 45.733c0 10.8-8.935 19.6-19.733 19.6S658 340 658 329.2v-5.733c0-10.8 8.533-19.6 19.333-19.6s19.733 8.8 19.733 19.6v5.733zM332 283.467c-8.533.267-17.6 5.867-23.2 14.533l-2.933-4.4c-2.533-3.6-10.667-10.534-21.733-10.133-6.667.133-13.066 3.466-18.8 8.667v-6.8h-23.2v81.333h23.2v-49.733c0-6.267 5.466-11.6 13.066-11.6 6.133 0 11.6 5.333 11.6 11.6v49.733h23.2v-49.733c0-6.267 5.466-11.6 13.066-11.6 6.133 0 11.6 5.333 11.6 11.6v49.733h23.2V321.2c0-6.134-.267-11.334-1.466-16-1.2-4.667-3.333-8.134-5.733-11.6-2.534-3.333-10.801-10.4-21.867-10.133zM798.533 305.2c-1.2-4.667-3.333-8.4-5.733-11.6-2.8-3.6-10.8-10.534-23.2-10.133-5.198.133-11.6 3.333-17.333 8.667v-6.8h-23.199v81.333h23.199v-51.2c0-6.667 6.268-10.133 11.602-10.133 7.466 0 13.065 5.199 13.065 11.6v49.733H800V321.2c0-6.266-.267-11.334-1.467-16zM43.867 348.667c-2.667.399-5.2.666-7.733.666-5.2 0-8.667-1.467-10.4-4.267-1.733-2.934-2.533-6.801-2.533-11.601v-27.733h28.933v-20.267H23.2v-24l-23.2 1.6v70.667c0 5.199.533 10 1.467 14.399.933 4.399 2.667 8 5.2 11.066 2.534 3.065 5.867 5.467 10 7.065C20.8 367.864 26 368.8 32.4 368.8c4.934 0 9.2-.398 12.667-1.2 3.466-.8 7.733-2 10.533-3.198l-4.8-17.733c-2.267.931-4.267 1.598-6.933 1.998zM580 348.934c-2.667.399-5.2.666-7.733.666-5.199 0-8.667-1.467-10.398-4.267-1.733-2.933-2.534-6.8-2.534-11.6v-28.001h28.934v-20.267h-28.934v-23.733l-23.199 1.6V334c0 5.2.533 10 1.467 14.4.934 4.398 2.666 8 5.199 11.065 2.533 3.066 5.867 5.467 10 7.066 4.135 1.732 9.334 2.533 15.733 2.533 4.934 0 9.2-.399 12.667-1.2 3.467-.8 7.732-2 10.533-3.199l-4.801-17.733c-2.267.934-4.267 1.601-6.934 2.002zM419.066 283.467c-8.801 0-17.333 3.466-23.2 9.2v-46.933l-23.2 1.467v119.467h23.2v-6.801c5.732 5.732 14.399 9.2 23.2 9.2 20 0 36.267-17.866 36.267-39.866v-5.867c0-22-16.267-39.867-36.267-39.867zm15.868 45.733c0 10.8-8.8 19.6-19.601 19.6-10.8 0-19.6-8.8-19.6-19.6v-5.733c0-10.8 8.8-19.6 19.6-19.6 10.801 0 19.601 8.8 19.601 19.6v5.733zM602.8 285.467H626v81.2h-23.2z"/><ellipse fill="#0F93ED" cx="99.867" cy="364.133" rx="41.867" ry="10.4"/><ellipse fill="#0F93ED" cx="193.467" cy="366.533" rx="38.8" ry="8.8"/><path fill="#FFE600" d="M158.267 328.8c-6.267-7.6-12.933-16.267-20.933-22.533-.8-22.133-14.8-36.267-36.8-36.267-20.934 0-34.934 13.733-36.667 36-6.4 1.467-11.733 7.733-10.4 14.667.267 1.6 2.8.933 2.533-.667-.933-5.2 3.067-9.866 7.733-11.2 0 .8-.133 1.467-.133 2.268 0 14.267 4.933 25.334 13.733 32.267C73.467 350.134 68 356 64.667 363.066c-.8 1.467 1.467 2.801 2.267 1.334 3.467-6.935 8.8-12.802 12.534-19.602 6 4 13.6 6.134 22.533 6.134 2.267 0 4.4-.134 6.533-.399-.133.267-.133.667.133.934 4 7.467 14.267 9.333 18.267 16.667.8 1.466 3.066.133 2.267-1.334-4-7.467-14.267-9.333-18.267-16.666 14.134-2.801 24.4-12.134 26.8-23.467h-20.8c-2 2.8-7.2 8.133-15.066 8.133-10.4 0-17.733-7.467-17.733-16.666v-.934h53.333V310c7.2 6 13.2 13.867 19.066 20.934 1.066 1.066 2.799-.8 1.733-2.134zm-74.134-25.466c0-9.601 7.333-16.401 16.4-16.401 9.067 0 16.4 6.8 16.4 16.401h-32.8z"/><circle fill="#E3E4E5" cx="143.733" cy="345.333" r="19.2"/><path fill="#FFF" d="M131.067 341.467c-.133 0-.267-.134-.267-.267l-.4-6.935c0-.133.133-.267.133-.399l5.733-4.399c.133-.134.267-.134.4-.134l6.534 2.267c.133 0 .267.135.267.268l.133 5.601c0 .133-.133.268-.133.399l-6.533 4.934c-.134.134-.267.134-.4.134l-5.467-1.469z"/><path fill="#F7F8F8" d="M159.2 353.733a.287.287 0 0 1-.267.267l-6.667 2c-.133 0-.267 0-.4-.134L148.4 351.2c-.133-.134-.133-.268-.133-.4l2.4-7.732c0-.134.133-.268.267-.268l5.333-1.732c.133 0 .267 0 .4.134l4.4 5.333c.133.134.133.267.133.399l-2 6.799z"/><path fill="#EEEFEF" d="M150.933 342.8h-.4l-6.667-4.666c-.133-.134-.267-.268-.267-.399l-.133-5.601c0-.134.133-.268.267-.268l6.4-2.533h.4l5.867 4.134c.133.133.133.268.133.4l-.133 6.933c0 .134-.133.268-.267.268l-5.2 1.732zM136.133 356.267c-.133.135-.267.135-.4.135l-6.8-1.733c-.133 0-.267-.134-.267-.267l-2.4-6.802c0-.133 0-.267.133-.398l4.267-5.602c.133-.133.267-.133.4-.133l5.466 1.601c.133 0 .267.134.267.267l2.667 7.733v.399l-3.333 4.8z"/><path fill="#FFF" d="M151.733 355.866c.133.134.133.268 0 .399L148 362.134c-.133.133-.267.268-.4.268l-7.2.133c-.133 0-.267-.133-.4-.133l-4-5.733c-.133-.134-.133-.267 0-.4l3.2-4.8c.133-.134.267-.267.4-.267l8.133-.134c.133 0 .267.134.4.134l3.6 4.664z"/><g><path fill="#213228" d="M130.267 334.267c0-.134-.133-.267-.267-.134l-2.267.801c-.133 0-.267.134-.267.268l-2.934 9.6c0 .134 0 .268.133.4l1.467 1.866c.133.134.267.134.267 0l4.267-5.601c.133-.134.133-.267.133-.399l-.532-6.801zm19.866-5.067c.133 0 .133-.134.133-.268l-1.467-1.866c-.133-.134-.267-.268-.4-.268 0 0-3.2-.666-5.066-.533-1.867 0-5.067.801-5.067.801-.133 0-.267.134-.4.267l-1.333 2c-.133.134 0 .267.133.267l6.534 2.268h.4l6.533-2.668zm-2.266 21.866c.133 0 .267-.134.267-.268l2.4-7.732c0-.134 0-.268-.133-.399L143.733 338c-.133-.134-.267-.134-.4 0l-6.534 4.934c-.133.134-.133.268-.133.399l2.667 7.733c0 .134.133.267.267.267l8.267-.267zm11.733-16.533c0-.133-.267-.268-.4-.268l-2.267-.667c-.133 0-.267 0-.267.135l-.133 6.934c0 .133 0 .267.133.399l4.4 5.334c.133.133.267.133.267 0l1.333-2c.133-.135.133-.268.133-.4l-3.199-9.467zm-11.467 27.734c-.133.135 0 .268.133.268l2.267.667h.4l8-6.134c.134-.134.134-.268.134-.399v-2.4c0-.134-.134-.267-.267-.134l-6.667 2c-.133 0-.267.134-.4.269l-3.6 5.863zm-19.066-7.6c-.133 0-.267 0-.267.133v2.4c0 .133.134.267.134.398l8.267 5.733c.133 0 .267.134.4 0l2.267-.8c.133 0 .133-.133.133-.268l-4-5.732c-.133-.133-.267-.268-.4-.268l-6.534-1.596z"/></g><path fill="#FFB103" d="M240.667 336.934c-3.333-5.866-5.466-12.399-10.533-16.934l-.533-45.733-20.934.267.133 6.533c-5.333-5.066-13.066-8.133-21.066-8-18 .267-32.4 16.534-32.267 36.267v5.2c0 1.2.133 2.399.267 3.467-2.934 4.267-5.2 9.066-7.2 14-.533 1.333 1.467 2.533 2 1.2 1.733-4 3.467-8 5.733-11.602 2.8 14.135 13.067 25.2 26 27.867-1.467 5.733-2.4 11.467-2.933 17.333-.133 1.467 2.267 1.467 2.4 0 .4-5.732 1.467-11.467 2.933-16.934 1.333.134 2.667.268 4.133.268 4.134 0 8.267-.934 12-2.534a77.32 77.32 0 0 0 4.934 19.468c.533 1.467 2.8.8 2.267-.666-2.533-6.4-4.133-12.935-4.933-19.867 2.533-1.333 4.667-2.935 6.667-4.935l.133 6.135 20.933-.268-.267-24.267c3.867 4.133 5.733 9.866 8.534 14.934.265 1.334 2.265.134 1.599-1.199zm-49.067-5.068c-9.733.134-17.733-7.733-17.867-17.466v-5.2c-.133-9.733 7.733-17.733 17.467-17.867 9.734-.134 17.733 7.733 17.867 17.466v5.2c.133 9.734-7.734 17.734-17.467 17.867z"/><g><radialGradient id="a" cx="365.204" cy="113.23" r="46.228" gradientTransform="matrix(1.3333 0 0 -1.3333 7.666 462.314)" gradientUnits="userSpaceOnUse"><stop offset="0" stop-color="#e6e6e6"/><stop offset=".172" stop-color="#ebebeb"/><stop offset=".531" stop-color="#f2f2f2" stop-opacity=".999"/><stop offset=".995" stop-color="#dcdddd"/></radialGradient><path fill="url(#a)" d="M518.533 310.4c2.267-15.467.134-20.4-1.733-26.134-.267-.667-.533-1.2-.933-1.733 1.731-10.4.398-14-1.867-18.933-2.267-4.667-8.4-3.467-11.866-2.667 0-.534.133-.934.133-1.333 0-2.934 6.801-2.267 9.468-2.8 2.667-.533 5.333-10.4 2.399-10.4h-43.465c-2.934 0-.267 9.867 2.399 10.4 2.667.534 9.467-.133 9.467 2.8 0 .4 0 .8.134 1.333-3.469-.933-9.603-2.133-11.869 2.667-2.267 4.933-3.467 8.533-1.866 18.933-.399.533-.667 1.067-.934 1.733-2 5.867-4 10.667-1.733 26.134 2.268 15.466 13.867 28.666 15.602 32.133 1.731 3.467 3.6 8.8 0 15.467-3.602 6.667-8.134 6-7.467 10.267.398 2.667 5.198 4 10 4.667v.268s2.933.398 8 .267c5.065.133 8-.267 8-.267v-.268c4.8-.667 9.6-2 10-4.667.8-4.267-3.867-3.6-7.468-10.267s-1.732-12 0-15.467c1.733-3.467 13.333-16.667 15.599-32.133zM482.8 273.867c-.934 2.133-5.6 3.333-9.6 5.333-.4-1.867-1.066-5.733-.134-8.667 1.199-4 1.866-5.867 5.199-5.867 1.601 0 3.468.667 4.935 1.333.133 2.934.4 6.134-.4 7.868zm19.066 0c-.8-1.867-.666-4.933-.399-7.867 1.467-.667 3.333-1.467 4.935-1.333 3.198.133 3.865 1.867 5.198 5.867.935 2.934.269 6.8-.133 8.667-4-2.001-8.667-3.201-9.601-5.334z"/><defs><path id="b" d="M518.533 310.4c2.267-15.467.134-20.4-1.733-26.134-.267-.667-.533-1.2-.933-1.733 1.731-10.4.398-14-1.867-18.933-2.267-4.667-8.4-3.467-11.866-2.667 0-.534.133-.934.133-1.333 0-2.934 6.801-2.267 9.468-2.8 2.667-.533 5.333-10.4 2.399-10.4h-43.465c-2.934 0-.267 9.867 2.399 10.4 2.667.534 9.467-.133 9.467 2.8 0 .4 0 .8.134 1.333-3.469-.933-9.603-2.133-11.869 2.667-2.267 4.933-3.467 8.533-1.866 18.933-.399.533-.667 1.067-.934 1.733-2 5.867-4 10.667-1.733 26.134 2.268 15.466 13.867 28.666 15.602 32.133 1.731 3.467 3.6 8.8 0 15.467-3.602 6.667-8.134 6-7.467 10.267.398 2.667 5.198 4 10 4.667v.268s2.933.398 8 .267c5.065.133 8-.267 8-.267v-.268c4.8-.667 9.6-2 10-4.667.8-4.267-3.867-3.6-7.468-10.267s-1.732-12 0-15.467c1.733-3.467 13.333-16.667 15.599-32.133zM482.8 273.867c-.934 2.133-5.6 3.333-9.6 5.333-.4-1.867-1.066-5.733-.134-8.667 1.199-4 1.866-5.867 5.199-5.867 1.601 0 3.468.667 4.935 1.333.133 2.934.4 6.134-.4 7.868zm19.066 0c-.8-1.867-.666-4.933-.399-7.867 1.467-.667 3.333-1.467 4.935-1.333 3.198.133 3.865 1.867 5.198 5.867.935 2.934.269 6.8-.133 8.667-4-2.001-8.667-3.201-9.601-5.334z"/></defs><clipPath id="c"><use xlink:href="#b" overflow="visible"/></clipPath><path clip-path="url(#c)" fill="#03A9F4" d="M466.934 251.2c11.601-1.2 17.333 1.6 22.935 8.533 6.398 7.733-1.2 11.467-10.269 24.267-9.333 13.2-9.731 43.467-9.731 43.467L447.6 286.934l7.733-26.134 11.601-9.6z"/><g><defs><path id="d" d="M518.533 310.4c2.267-15.467.134-20.4-1.733-26.134-.267-.667-.533-1.2-.933-1.733 1.731-10.4.398-14-1.867-18.933-2.267-4.667-8.4-3.467-11.866-2.667 0-.534.133-.934.133-1.333 0-2.934 6.801-2.267 9.468-2.8 2.667-.533 5.333-10.4 2.399-10.4h-43.465c-2.934 0-.267 9.867 2.399 10.4 2.667.534 9.467-.133 9.467 2.8 0 .4 0 .8.134 1.333-3.469-.933-9.603-2.133-11.869 2.667-2.267 4.933-3.467 8.533-1.866 18.933-.399.533-.667 1.067-.934 1.733-2 5.867-4 10.667-1.733 26.134 2.268 15.466 13.867 28.666 15.602 32.133 1.731 3.467 3.6 8.8 0 15.467-3.602 6.667-8.134 6-7.467 10.267.398 2.667 5.198 4 10 4.667v.268s2.933.398 8 .267c5.065.133 8-.267 8-.267v-.268c4.8-.667 9.6-2 10-4.667.8-4.267-3.867-3.6-7.468-10.267s-1.732-12 0-15.467c1.733-3.467 13.333-16.667 15.599-32.133zM482.8 273.867c-.934 2.133-5.6 3.333-9.6 5.333-.4-1.867-1.066-5.733-.134-8.667 1.199-4 1.866-5.867 5.199-5.867 1.601 0 3.468.667 4.935 1.333.133 2.934.4 6.134-.4 7.868zm19.066 0c-.8-1.867-.666-4.933-.399-7.867 1.467-.667 3.333-1.467 4.935-1.333 3.198.133 3.865 1.867 5.198 5.867.935 2.934.269 6.8-.133 8.667-4-2.001-8.667-3.201-9.601-5.334z"/></defs><clipPath id="e"><use xlink:href="#d" overflow="visible"/></clipPath><path clip-path="url(#e)" fill="#D31513" d="M520.533 290.533c-.935 9.867-3.866 16.934-10.133 26.134-6.269 9.199-15.468 20.533-14.935 26.533s2.399 15.732 6 17.2c3.601 1.466 14.935-4.4 14.935-4.4l12.532-47.066-8.399-18.401z"/></g><circle fill="#D31513" cx="494.667" cy="292.667" r="7.333"/><path fill="#FFC71A" d="M460.533 260.4c-4.533-1.466-9.2-3.066-13.733-4.533 2.667-.533 5.2-1.067 7.867-1.6.8-.133.399-1.333-.267-1.2a749.647 749.647 0 0 1-7.733 1.6c1.866-2.533 3.866-5.066 5.733-7.6.532-.667-.534-1.2-1.067-.667-2.133 2.934-4.399 5.733-6.533 8.667-2.666-1.6-5.6-5.466-7.866-7.6-.532-.533-1.467.267-.934.933 1.733 1.733 3.467 3.333 5.2 5.067.533.533 1.2 1.333 2 2.133-2.4.533-4.8.933-7.334 1.466-.8.134-.399 1.333.268 1.2 2.666-.4 5.333-.933 8-1.333 0 .533.133.933.133 1.466.135 2.133.135 4.133.268 6.267 0 .8 1.334.8 1.2 0-.135-1.6-.135-3.333-.268-4.933 0-1.067-.134-1.867-.134-2.667 4.934 1.6 9.733 3.2 14.667 4.934.934-.267 1.2-1.467.533-1.6z"/><path fill="#03A9F4" d="M473.467 239.333c-2.8-1.867-5.601-3.733-8.399-5.6 2.399-.267 4.667-.533 7.066-.934.399 0 .399-.667 0-.667-2.667.267-5.2.667-7.867.933l-.133-.133c-.134-.8 0-1.6 0-2.534v-5.6c0-.4-.667-.4-.667 0v5.6c0 .534-.134 1.333-.134 2-1.6-1.066-3.066-2.133-4.666-3.066-.4-.267-.667.267-.267.533 1.6 1.2 3.333 2.4 4.933 3.6-.399.4-.666.8-.933 1.2-.935 1.067-2 2.133-2.935 3.067-.267.267.133.8.533.4.934-.933 1.733-1.867 2.667-2.8.399-.4.8-.934 1.333-1.333 1.733 3.467 3.333 6.8 5.066 10.267.134.4.8 0 .532-.267-1.6-3.333-3.333-6.667-4.933-10 2.933 2 5.866 3.867 8.8 5.867.004.267.403-.266.004-.533z"/></g></svg>